<?xml version="1.0" standalone="no"?>
<!DOCTYPE svg PUBLIC "-//W3C//DTD SVG 1.1//EN" "http://www.w3.org/Graphics/SVG/1.1/DTD/svg11.dtd" >
<svg xmlns="http://www.w3.org/2000/svg" xmlns:xlink="http://www.w3.org/1999/xlink" version="1.1">
<metadata>
Created by FontForge 20170731 at Thu Nov 21 15:36:15 2013
 By Aleksey,,,
Hallo sans (c) Fredrik Staurland. 2013. All Rights Reserved
</metadata>
<defs>
<font id="Hallosans-Black" horiz-adv-x="1014" >
  <font-face 
    font-family="Hallo sans"
    font-weight="900"
    font-stretch="normal"
    units-per-em="2048"
    panose-1="2 0 5 0 0 0 0 0 0 0"
    ascent="1638"
    descent="-410"
    x-height="1015"
    cap-height="1460"
    bbox="-342 -560 2048 1836"
    underline-thickness="150"
    underline-position="-442"
    unicode-range="U+001D-F002"
  />
<missing-glyph horiz-adv-x="1024" 
d="M100 0v1434h824v-1434h-824zM150 50h724v1334h-724v-1334zM325 1148q31 28 58 43q53 30 112 30q92 0 148 -47.5t56 -127.5q0 -49 -23 -98.5t-87 -129.5q-63 -80 -99 -132t-36 -99q0 -38 24 -133h-32q-35 97 -35 148q0 76 81.5 218t81.5 217q0 57 -33 90t-91 33
q-38 0 -69 -17q-26 -15 -56 -40v45zM389 334l57 58q11 10 20 10q10 0 22 -11l56 -60q9 -11 9 -20q0 -11 -10 -22l-56 -62q-14 -14 -21 -14q-11 0 -20 10l-61 71q-7 9 -7 18q0 10 11 22z" />
    <glyph glyph-name=".notdef" horiz-adv-x="1024" 
d="M100 0v1434h824v-1434h-824zM150 50h724v1334h-724v-1334zM325 1148q31 28 58 43q53 30 112 30q92 0 148 -47.5t56 -127.5q0 -49 -23 -98.5t-87 -129.5q-63 -80 -99 -132t-36 -99q0 -38 24 -133h-32q-35 97 -35 148q0 76 81.5 218t81.5 217q0 57 -33 90t-91 33
q-38 0 -69 -17q-26 -15 -56 -40v45zM389 334l57 58q11 10 20 10q10 0 22 -11l56 -60q9 -11 9 -20q0 -11 -10 -22l-56 -62q-14 -14 -21 -14q-11 0 -20 10l-61 71q-7 9 -7 18q0 10 11 22z" />
    <glyph glyph-name=".null" horiz-adv-x="0" 
 />
    <glyph glyph-name=".null" horiz-adv-x="0" 
 />
    <glyph glyph-name="nonmarkingreturn" horiz-adv-x="508" 
 />
    <glyph glyph-name="space" unicode=" " horiz-adv-x="508" 
 />
    <glyph glyph-name="space" unicode="&#xa0;" horiz-adv-x="508" 
 />
    <glyph glyph-name="exclam" unicode="!" horiz-adv-x="545" 
d="M102 220h260v1251h-260v-1251zM129 -91q-45 45 -45 108t45 108t108 45t108 -45t45 -108t-45 -108t-108 -45t-108 45z" />
    <glyph glyph-name="quotedbl" unicode="&#x22;" horiz-adv-x="728" 
d="M165 1061l-18 73q-5 21 -52 89q-106 155 -118 272l-10 104h259l10 -83q6 -49 73 -146q83 -120 95 -199l18 -110h-257zM548 1061l-18 73q-5 21 -52 89q-106 155 -118 272l-10 104h259l10 -83q6 -49 73 -146q83 -120 95 -199l18 -110h-257z" />
    <glyph glyph-name="numbersign" unicode="#" horiz-adv-x="1336" 
d="M904 1463l-66 -332h-244l66 332h-262l-67 -332h-173l-52 -259h173l-53 -268h-174l-52 -260h174l-69 -344h262l69 344h244l-69 -344h263l69 344h177l52 260h-177l54 268h177l52 259h-177l66 332h-263zM542 872h244l-54 -268h-244z" />
    <glyph glyph-name="dollar" unicode="$" horiz-adv-x="1139" 
d="M436 1159q-21 -33 -17 -66q2 -24 17 -45v111zM696 276q53 37 72 109q14 52 7 97q-11 67 -79 123v-329zM436 -142v137q-241 59 -328 289l-36 96l249 73l32 -81q25 -64 83 -99v463q-252 115 -276 328q-15 141 72 258q82 108 204 141v179h260v-178q168 -49 235 -202l42 -97
l-246 -78l-31 65v-245q296 -141 335 -384q27 -168 -56 -316q-92 -164 -277 -210q0 1 -2 0v-139h-260z" />
    <glyph glyph-name="percent" unicode="%" horiz-adv-x="1369" 
d="M140 0l8 103q14 176 173 410q95 141 339 423q309 358 328 450l16 77h258l-16 -110q-17 -110 -127 -266q-69 -97 -262 -320q-432 -501 -450 -681l-8 -86h-259zM375 1234q-15 -15 -15 -36q0 -22 15 -37t37 -15q21 0 37 15q15 15 15 37q0 21 -15 36q-16 16 -37 16
q-22 0 -37 -16zM191 977q-91 92 -91 221t91 220q92 91 221 91t220 -91q92 -91 92 -220t-92 -221q-91 -91 -220 -91t-221 91zM919 357q-15 -15 -15 -37q0 -21 15 -36q16 -16 37 -16q22 0 37 16q15 15 15 36q0 22 -15 37t-37 15t-37 -15zM736 100q-92 91 -92 220t92 221
q91 91 220 91t220 -91q92 -92 92 -221t-92 -220q-91 -92 -220 -92t-220 92z" />
    <glyph glyph-name="ampersand" unicode="&#x26;" horiz-adv-x="1299" 
d="M817 748l-32 -14l-181 204l82 36q46 20 54 44q8 23 -1 115q-2 24 -3 39q-4 61 -149 62q-143 -1 -147 -62q-1 -17 -3 -39q-10 -110 8 -130l371 -402l1 124h259v-246q0 -79 -9 -149l189 -204l-191 -176l-117 127q-92 -79 -251 -79h-218q-306 0 -364 292q-16 80 -15 198
q2 172 51 267q26 51 82 98q-73 100 -55 303l3 36q10 139 117 219q106 80 284 82h11q178 -2 285 -82t117 -220q1 -11 3 -35q12 -130 -6 -200q-31 -123 -149 -193zM408 661q-22 -17 -27 -25q-19 -39 -21 -144q-2 -94 10 -151q10 -50 24 -64q21 -19 85 -19h218q50 0 73 11z" />
    <glyph glyph-name="quotesingle" unicode="'" horiz-adv-x="346" 
d="M165 1061l-18 73q-5 21 -52 89q-106 155 -118 272l-10 104h259l10 -83q6 -49 73 -146q83 -120 95 -199l18 -110h-257z" />
    <glyph glyph-name="parenleft" unicode="(" horiz-adv-x="693" 
d="M337 -172q-236 302 -236 867q0 566 236 867l65 83l100 -96l88 -83l-51 -68q-178 -241 -178 -703t178 -703l50 -68l-187 -179z" />
    <glyph glyph-name="parenright" unicode=")" horiz-adv-x="734" 
d="M289 -255l-188 179l50 68q179 241 179 703t-179 703l-50 68l88 83l100 96l64 -83q237 -301 237 -867q0 -565 -237 -867z" />
    <glyph glyph-name="asterisk" unicode="*" horiz-adv-x="1024" 
d="M498 1294q-4 71 -37 130q-37 66 -37 84q0 32 23.5 51.5t62.5 19.5q37 0 61.5 -18t24.5 -47q0 -21 -36 -89q-33 -61 -37 -130q66 25 113 75q51 55 69 61q11 3 21 3q18 0 35 -10q26 -17 38 -53q6 -19 6 -36q0 -15 -4 -28q-10 -30 -38 -38q-6 -2 -19 -2q-25 0 -76 9
q-28 5 -55 5q-41 0 -81 -11q44 -55 105 -83q68 -32 79 -47q13 -18 13 -38q0 -9 -2 -17q-8 -30 -39 -53q-29 -22 -59 -22q-1 0 -1 1q-31 0 -48 23q-12 17 -22 94q-10 67 -47 125q-38 -58 -46 -124q-9 -75 -20 -90q-19 -25 -49 -27h-5q-28 0 -57 21q-30 21 -39 51q-4 10 -4 20
q0 17 11 32q13 17 83 51q61 29 105 82q-41 11 -80 11q-27 0 -53 -5q-54 -11 -78 -11q-9 0 -14 2q-30 9 -41 38q-6 13 -6 29q0 17 6 36q11 35 36 53q17 12 34 12q9 0 18 -3q20 -6 74 -62q47 -49 112 -75z" />
    <glyph glyph-name="plus" unicode="+" horiz-adv-x="1166" 
d="M456 1260v-356h-356v-260h356v-356h260v356h356v260h-356v356h-260z" />
    <glyph glyph-name="comma" unicode="," horiz-adv-x="557" 
d="M6 -197l18 110q12 79 95 199q67 97 73 146l10 83h259l-10 -104q-12 -117 -118 -272q-47 -68 -52 -89l-18 -73h-257z" />
    <glyph glyph-name="hyphen" unicode="-" horiz-adv-x="893" 
d="M98 609h705v260h-705v-260z" />
    <glyph glyph-name="hyphen" unicode="&#xad;" horiz-adv-x="893" 
d="M98 609h705v260h-705v-260z" />
    <glyph glyph-name="period" unicode="." horiz-adv-x="557" 
d="M138 48q-45 45 -45 108t45 108t108 45t108 -45t45 -108t-45 -108t-108 -45t-108 45z" />
    <glyph glyph-name="slash" unicode="/" horiz-adv-x="615" 
d="M338 1460l-338 -1460h263l338 1460h-263z" />
    <glyph glyph-name="zero" unicode="0" horiz-adv-x="1113" 
d="M399 1189q-26 -22 -38 -84q-11 -60 -12 -376q0 -322 13 -376q17 -57 44 -78q46 -35 160 -35q113 0 156 32q27 20 44 81q14 54 14 376q-1 316 -12 376q-12 62 -45 86q-46 34 -164 34t-160 -36zM113 281q-26 89 -23 463q3 343 16 410q62 330 453 330q401 0 464 -330
q13 -67 16 -410q2 -374 -23 -463q-52 -180 -196 -252q-99 -49 -254 -49q-366 0 -453 301z" />
    <glyph glyph-name="one" unicode="1" horiz-adv-x="760" 
d="M385 0v1044q-3 -3 -4 -5l-29 -39h-252l36 122q24 79 153 180q88 69 96 93l22 65h238v-1460h-260z" />
    <glyph glyph-name="two" unicode="2" 
d="M100 0v531q0 91 62 170q52 67 115 91l129 49q113 43 174 66q63 23 74 49q9 22 1 114l-3 39q-4 54 -79 76q-39 12 -75 12h-380v260h380q156 0 270 -80q131 -91 143 -249q0 -12 2 -33q14 -149 -15 -228q-49 -137 -228 -204q-67 -25 -184 -69l-110 -42q-14 -12 -17 -24
l1 -268h512v-260h-772z" />
    <glyph glyph-name="three" unicode="3" horiz-adv-x="1029" 
d="M100 0v260h450q64 0 85 19q14 13 24 63q37 184 -12 278q-14 24 -91 66l-172 -68l-96 241l266 106q34 16 40 34q6 19 -1 98l-1 6q-2 25 -3 35q-5 62 -153 62h-336v260h336q180 0 291 -82q110 -81 121 -221q1 -11 3 -36q18 -193 -52 -286q53 -46 79 -96q90 -174 36 -448
q-58 -291 -364 -291h-450z" />
    <glyph glyph-name="four" unicode="4" horiz-adv-x="1009" 
d="M638 0v613q-113 49 -220 90q-189 75 -265 209q-53 94 -53 237v311h260v-311q0 -81 24 -118q32 -48 129 -86l125 -50v565h260v-1460h-260z" />
    <glyph glyph-name="five" unicode="5" horiz-adv-x="997" 
d="M118 0v260h380q36 0 75 12q75 22 79 76l2 24q11 137 -2 197q-16 71 -72 92q-43 16 -155 59l-148 56q-63 24 -115 91q-62 79 -62 170v420h772v-260h-512v-160q3 -9 16 -21l113 -43q129 -49 181 -68q181 -68 230 -257q28 -105 12 -296l-1 -23q-12 -159 -143 -249
q-114 -80 -270 -80h-380z" />
    <glyph glyph-name="six" unicode="6" 
d="M375 706q0 -321 7 -414q4 -61 148 -62q143 1 148 62l2 21q12 157 -4 226q-17 73 -68 91zM525 -30q-179 3 -285 83q-107 80 -117 219q-48 636 5 902q58 291 364 291h320v-260h-320q-65 0 -85 -19q-15 -13 -25 -63q-3 -22 -5 -144l316 -103q188 -67 236 -279
q25 -108 10 -303l-2 -22q-11 -139 -117 -219t-284 -83v27l-1 -27h-10z" />
    <glyph glyph-name="seven" unicode="7" horiz-adv-x="951" 
d="M275 0l3 98q8 243 191 602q144 280 144 428v71h-513v260h772v-331q0 -210 -171 -546q-157 -306 -163 -490l-3 -92h-260z" />
    <glyph glyph-name="eight" unicode="8" horiz-adv-x="1160" 
d="M559 937l109 43q39 18 46 43q7 24 -1 112q-3 27 -3 38q-4 53 -149 54h-3q-144 -1 -148 -54q-1 -14 -4 -38q-7 -88 -1 -112q7 -25 45 -43zM442 704q-76 -42 -91 -67q-19 -38 -21 -144q-2 -94 10 -151q9 -50 24 -63q21 -19 85 -19h221q65 0 86 19q14 13 24 63q11 57 10 151
q-2 106 -22 144q-15 25 -91 67l-118 -46zM449 0q-306 0 -364 291q-16 81 -15 199q2 172 51 267q26 50 81 97q-72 100 -54 304q0 -5 3 35q8 104 74 177q104 113 327 116h14q224 -3 328 -116q67 -72 74 -177q1 -14 3 -32q18 -207 -54 -307q55 -47 81 -97q93 -180 36 -466
q-58 -291 -364 -291h-221z" />
    <glyph glyph-name="nine" unicode="9" horiz-adv-x="1029" 
d="M367 1173q0 -11 -3 -38q-8 -96 1 -119q10 -26 72 -48l233 -76q-1 214 -6 281q-5 61 -148 62q-144 -1 -149 -62zM469 0q-146 0 -229 59q-82 59 -115 187l-24 97l254 51l23 -88q8 -33 19 -39q14 -7 72 -7h85q64 0 85 19q14 13 24 63q5 35 7 277l-318 103q-181 65 -231 205
q-29 80 -15 231q2 25 2 35q11 139 117 219q107 80 285 83h10q179 -3 286 -83q106 -80 117 -219q48 -636 -5 -902q-59 -291 -364 -291h-85z" />
    <glyph glyph-name="colon" unicode=":" horiz-adv-x="557" 
d="M147 767q-45 45 -45 108t45 108t108 45t108 -45t45 -108t-45 -108t-108 -45t-108 45zM147 242q-45 45 -45 108t45 108t108 45t108 -45t45 -108t-45 -108t-108 -45t-108 45z" />
    <glyph glyph-name="semicolon" unicode=";" horiz-adv-x="557" 
d="M157 760q-45 45 -45 108t45 108t108 45q64 0 108 -45q45 -45 45 -108t-45 -108q-44 -45 -108 -45q-63 0 -108 45zM-32 -176l18 110q12 79 95 199q67 98 73 146l10 84h259l-10 -104q-11 -118 -118 -273q-47 -68 -52 -89l-18 -73h-257z" />
    <glyph glyph-name="semicolon" unicode="&#x37e;" horiz-adv-x="557" 
d="M157 760q-45 45 -45 108t45 108t108 45q64 0 108 -45q45 -45 45 -108t-45 -108q-44 -45 -108 -45q-63 0 -108 45zM-32 -176l18 110q12 79 95 199q67 98 73 146l10 84h259l-10 -104q-11 -118 -118 -273q-47 -68 -52 -89l-18 -73h-257z" />
    <glyph glyph-name="less" unicode="&#x3c;" 
d="M927 1074l-625 -359l625 -355v-167l-840 481v83l840 484v-167z" />
    <glyph glyph-name="equal" unicode="=" horiz-adv-x="1166" 
d="M95 411h972v260h-972v-260zM95 744h972v259h-972v-259z" />
    <glyph glyph-name="greater" unicode="&#x3e;" 
d="M87 1241l840 -484v-83l-840 -481v167l625 355l-625 359v167z" />
    <glyph glyph-name="question" unicode="?" horiz-adv-x="1099" 
d="M292 260v380q0 82 54 158q50 71 117 100l9 4q70 31 147 69q70 34 83 64q11 24 3 115l-2 28q-4 54 -79 77q-39 12 -75 12q-114 0 -156 -46q-23 -24 -27 -63l-9 -78l-258 -22l7 110q9 135 95 229q120 130 348 130q155 0 270 -80q131 -91 143 -249l2 -27q12 -142 -15 -218
q-47 -132 -216 -215q-83 -42 -156 -73l-6 -3q-14 -11 -19 -25v-377h-260zM315 -43q-46 46 -46 110t46 109q45 45 109 45t109 -45q46 -45 46 -109t-46 -110q-45 -45 -109 -45t-109 45z" />
    <glyph glyph-name="at" unicode="@" horiz-adv-x="1548" 
d="M635 365q0 -122 105 -122q83 0 138 43v175q-33 17 -109 17q-134 0 -134 -113zM1107 849q30 -78 30 -214v-435q17 1 28 2l5 25q10 59 11 345q1 297 -13 350q-16 58 -44 79q-45 35 -159 35h-78q5 -2 3 -1q161 -45 217 -186zM569 1036q-118 0 -160 -36q-26 -22 -38 -84
q-11 -61 -12 -377q0 -322 14 -375q15 -52 38 -73q32 -30 105 -38q-140 105 -140 312q0 165 109 269q110 104 284 104q57 0 102 -7q-8 42 -51 54q-22 6 -51 6q-77 0 -152 -34l-82 -36l-121 229l92 42q62 28 131 44h-68zM545 -209q-338 11 -422 301q-25 86 -23 454
q2 344 16 418q63 331 453 331h396q366 0 453 -301q24 -85 23 -423q-1 -315 -16 -392q-31 -162 -137 -210q-67 -30 -262 -30h-148v63q-69 -19 -138 -19q-51 0 -97 11v-206z" />
    <glyph glyph-name="A" unicode="A" horiz-adv-x="1174" 
d="M705 674h-238q52 161 118 346q67 -184 120 -346zM1105 100q-18 372 -393 1301l-24 59h-208l-24 -60q-369 -930 -387 -1300l-5 -100h260l4 90q6 113 63 324h391q58 -211 64 -324l5 -90h259z" />
    <glyph glyph-name="B" unicode="B" horiz-adv-x="1053" 
d="M341 875v325h138q149 0 154 -62q1 -12 3 -37v-4q8 -87 -1 -105q-10 -20 -73 -42q-87 -32 -221 -75zM679 279q-21 -19 -86 -19h-252v343q151 47 258 84q77 -41 92 -67q49 -94 12 -278q-10 -50 -24 -63zM842 835q70 93 53 286q-2 19 -3 36q-11 140 -122 221
q-110 82 -291 82h-398v-1460h512q306 0 365 291q12 65 14 162q4 181 -51 286q-25 50 -79 96z" />
    <glyph glyph-name="C" unicode="C" horiz-adv-x="1134" 
d="M770 332q-17 -47 -43 -64q-44 -28 -151 -28q-114 0 -160 35q-27 21 -43 78q-14 54 -14 376q1 316 12 376q12 62 38 84q42 36 160 36q117 0 164 -33q28 -20 40 -67l24 -85l254 49l-25 98q-77 297 -457 297q-391 0 -453 -330q-13 -67 -16 -410q-3 -374 23 -463
q52 -180 197 -252q99 -49 256 -49q345 0 440 270l33 95l-249 72z" />
    <glyph glyph-name="D" unicode="D" horiz-adv-x="1064" 
d="M675 292q-43 -32 -157 -32h-154l-3 941h150q119 0 165 -34q33 -24 45 -86q10 -60 11 -351q2 -303 -13 -357q-18 -61 -44 -81zM511 1460h-411l5 -1460h413q364 0 451 301q25 89 23 438q-3 319 -16 390q-63 331 -465 331z" />
    <glyph glyph-name="E" unicode="E" horiz-adv-x="954" 
d="M100 1461v-1461h786v260h-526v433h438v259h-438v250h482v259h-742z" />
    <glyph glyph-name="F" unicode="F" horiz-adv-x="899" 
d="M100 1461v-1461h260v692h438v260h-438v249h482v260h-742z" />
    <glyph glyph-name="G" unicode="G" horiz-adv-x="1134" 
d="M543 840v-260h226q-3 -189 -13 -227q-17 -61 -44 -81q-43 -32 -156 -32q-114 0 -160 35q-27 21 -43 78q-14 53 -14 376q1 316 12 376q12 62 38 84q42 36 160 36q117 0 164 -33q28 -20 40 -67l24 -85l254 49l-25 98q-77 297 -457 297q-391 0 -453 -330q-13 -67 -16 -410
q-3 -374 23 -463q52 -180 197 -252q99 -49 256 -49q363 0 450 301q24 83 23 430v129h-486z" />
    <glyph glyph-name="H" unicode="H" horiz-adv-x="1055" 
d="M694 1460v-508h-334v508h-260v-1460h260v692h334v-692h260v1460h-260z" />
    <glyph glyph-name="I" unicode="I" horiz-adv-x="478" 
d="M100 0h260v1460h-260v-1460z" />
    <glyph glyph-name="J" unicode="J" horiz-adv-x="879" 
d="M286 -3q-102 29 -165 109q-62 81 -71 193l-8 103h259l8 -87q5 -56 49 -69q23 -6 53 -6q34 0 59 10q53 22 53 202v1014h260v-1014q0 -146 -27 -231q-48 -153 -187 -211q-73 -30 -158 -30q-67 0 -125 17z" />
    <glyph glyph-name="K" unicode="K" horiz-adv-x="1096" 
d="M761 0l-7 88q-15 181 -257 575q-66 -25 -137 -53v-610h-260v1460h260v-571q85 33 155 57q99 36 131 87q23 37 23 116v311h260v-311q0 -256 -191 -381q258 -426 275 -666l7 -102h-259z" />
    <glyph glyph-name="L" unicode="L" horiz-adv-x="939" 
d="M100 1461v-1461h786v260h-526v1201h-260z" />
    <glyph glyph-name="M" unicode="M" horiz-adv-x="1438" 
d="M1091 0l-3 93q-6 241 -126 859q-98 -266 -107 -401l-5 -90h-250l-6 90q-9 134 -108 402q-117 -619 -124 -860l-2 -93h-260l3 98q10 361 206 1285l16 76h214l26 -52q91 -180 159 -353q65 170 156 352l26 53h213l17 -75q202 -925 212 -1286l3 -98h-260z" />
    <glyph glyph-name="N" unicode="N" horiz-adv-x="1108" 
d="M745 0l-7 88q-13 188 -343 690q-14 22 -35 54v-832h-260v1460h249l12 -81q14 -98 251 -458q85 -130 127 -197v736h260v-1460h-254z" />
    <glyph glyph-name="O" unicode="O" horiz-adv-x="1154" 
d="M409 1189q-26 -22 -38 -84q-11 -60 -12 -376q0 -323 14 -376q16 -57 44 -78q45 -35 159 -35q113 0 156 32q27 20 44 81q14 54 14 376q-1 316 -12 376q-12 62 -45 86q-46 34 -164 34t-160 -36zM123 281q-26 89 -23 463q3 343 16 410q62 330 453 330q401 0 464 -330
q13 -67 16 -410q3 -374 -23 -463q-52 -180 -196 -252q-99 -49 -254 -49q-366 0 -453 301z" />
    <glyph glyph-name="P" unicode="P" horiz-adv-x="931" 
d="M329 827q134 39 221 71q60 21 72 48q11 28 2 129q-2 25 -3 37q-4 54 -79 77q-39 12 -75 12h-138v-374zM69 0v1461h398q156 0 270 -80q131 -91 143 -249l3 -35q13 -150 -15 -233q-50 -146 -230 -211q-121 -43 -309 -96v-557h-260z" />
    <glyph glyph-name="Q" unicode="Q" horiz-adv-x="1221" 
d="M409 1189q-26 -22 -38 -84q-11 -60 -12 -376q0 -323 14 -376q16 -57 44 -78q45 -35 159 -35q66 0 107 10q-76 88 -89 180l-17 110h211q10 454 -10 565q-12 62 -45 86q-46 34 -164 34t-160 -36zM123 281q-26 89 -23 463q3 343 16 410q62 330 453 330q402 0 464 -330
q13 -66 16 -405q3 -370 -22 -464q91 -85 111 -166l28 -118h-253l-26 54q-1 2 -4 6q-110 -81 -307 -81q-366 0 -453 301z" />
    <glyph glyph-name="R" unicode="R" horiz-adv-x="960" 
d="M322 827q134 39 221 71q59 21 70 48q10 23 6 113q-1 40 -1 63q0 36 -58 59q-48 20 -100 20h-138v-374zM663 0l-7 88q-13 167 -213 504q-57 -17 -121 -35v-557h-260v1461h398q165 0 285 -87q132 -96 132 -252q0 -17 2 -53q4 -127 -18 -198q-40 -125 -169 -191
q209 -363 224 -578l6 -102h-259z" />
    <glyph glyph-name="S" unicode="S" horiz-adv-x="1090" 
d="M239 79q-106 82 -152 204l-37 96l249 73l32 -80q53 -132 203 -132q38 0 79 10q90 22 124 110q24 62 15 121q-21 126 -247 215q-145 57 -218 114q-132 101 -149 253q-15 141 73 258q82 108 205 140q67 18 133 18q122 0 218 -59q97 -59 141 -160l42 -97l-246 -78l-36 74
q-29 60 -121 60q-31 0 -64 -8q-33 -9 -61 -43q-30 -37 -26 -77q6 -45 57 -82q44 -31 147 -71q364 -143 408 -416q27 -167 -56 -315q-92 -164 -277 -209q-72 -18 -141 -18q-168 0 -295 99z" />
    <glyph glyph-name="T" unicode="T" horiz-adv-x="902" 
d="M51 1459v-259h281v-1200h260v1200h281v259h-822z" />
    <glyph glyph-name="U" unicode="U" horiz-adv-x="1079" 
d="M275 63q-113 83 -152 218q-33 116 -19 1088l2 94h259l-1 -96q-13 -910 9 -1016q17 -58 71 -88q42 -23 88 -23q123 0 156 113q22 104 9 1014l-2 96h260l1 -94q15 -972 -19 -1088q-39 -137 -150 -219q-110 -82 -255 -82q-144 0 -257 83z" />
    <glyph glyph-name="V" unicode="V" horiz-adv-x="1131" 
d="M439 61q-362 924 -380 1299l-5 100h260l4 -90q13 -250 248 -906q231 656 243 906l5 90h259l-4 -100q-18 -375 -374 -1299l-24 -60l-208 -1z" />
    <glyph glyph-name="W" unicode="W" horiz-adv-x="1505" 
d="M890 59q-87 186 -157 373q-69 -187 -155 -372l-27 -60h-210l-19 79q-271 920 -284 1289l-4 99h260l3 -92q10 -247 180 -886q115 302 124 449l6 90h250l5 -89q10 -151 130 -459q181 646 191 896l4 91h259l-4 -99q-14 -369 -297 -1291l-19 -77h-208z" />
    <glyph glyph-name="X" unicode="X" horiz-adv-x="1157" 
d="M791 0l-7 88q-13 157 -201 477q-189 -322 -201 -477l-7 -88h-260l7 102q18 245 307 711q-28 43 -62 96q-217 333 -240 428l-27 127h260l22 -75q19 -57 201 -336q181 279 201 336l22 75h260l-28 -127q-22 -95 -239 -428q-42 -65 -62 -96q289 -466 306 -711l7 -102h-259z
" />
    <glyph glyph-name="Y" unicode="Y" horiz-adv-x="1000" 
d="M389 0v647q-314 369 -330 713l-5 100h259l5 -90q11 -209 203 -471q188 262 199 471l5 90h260l-5 -100q-17 -349 -331 -719v-641h-260z" />
    <glyph glyph-name="Z" unicode="Z" horiz-adv-x="1061" 
d="M100 0v130q0 147 323 683q165 274 221 385h-508v260h818v-130q0 -137 -309 -649q-179 -297 -238 -419h567v-260h-874z" />
    <glyph glyph-name="bracketleft" unicode="[" horiz-adv-x="696" 
d="M92 1717v-1914h452v260h-192v1394h192v260h-452z" />
    <glyph glyph-name="backslash" unicode="\" horiz-adv-x="569" 
d="M0 1460l338 -1460h263l-338 1460h-263z" />
    <glyph glyph-name="bracketright" unicode="]" horiz-adv-x="699" 
d="M108 1714v-260h193v-1394h-193v-260h452v1914h-452z" />
    <glyph glyph-name="asciicircum" unicode="^" 
 />
    <glyph glyph-name="underscore" unicode="_" horiz-adv-x="1024" 
d="M0 -100h1024v-60h-1024v60z" />
    <glyph glyph-name="grave" unicode="`" horiz-adv-x="1024" 
d="M673 1079h-69l-330 202q-31 20 -46.5 40t-15.5 42q0 31 20.5 51t53.5 20q20 0 40.5 -12t55.5 -47z" />
    <glyph glyph-name="a" unicode="a" horiz-adv-x="919" 
d="M330 362q0 -122 105 -122q82 0 137 42v175q-33 18 -109 18q-133 0 -133 -113zM171 85q-101 105 -101 277q0 164 110 269q109 104 283 104q57 0 103 -7q-9 42 -51 54q-22 6 -52 6q-76 0 -152 -34l-81 -36l-122 229l92 42q128 58 263 58q66 0 122 -15q160 -45 216 -186
q31 -78 31 -214v-634h-226l-6 10q-86 -28 -165 -28q-164 0 -264 105z" />
    <glyph glyph-name="b" unicode="b" horiz-adv-x="995" 
d="M360 280q72 -40 149 -40q96 0 121 128q34 179 -6 317q-16 53 -45 74q-28 22 -83 22q-74 0 -136 -30v-471zM328 11l-6 -9h-222v1521h260v-498q66 16 136 16q141 0 239 -74q99 -75 138 -210q57 -198 12 -437q-29 -153 -133 -246q-103 -94 -243 -94q-93 0 -181 31z" />
    <glyph glyph-name="c" unicode="c" horiz-adv-x="948" 
d="M250 62q-108 82 -147 219q-54 185 -8 429q30 158 134 244q103 87 262 87q206 0 326 -152l65 -82l-217 -141l-54 65q-42 50 -120 50q-65 0 -97 -27q-31 -26 -44 -92q-34 -183 2 -309q33 -113 146 -113q70 0 109 46l54 66l217 -141l-65 -82q-117 -149 -315 -149
q-141 0 -248 82z" />
    <glyph glyph-name="d" unicode="d" horiz-adv-x="1006" 
d="M519 782q-68 -6 -98 -29q-26 -20 -40 -68q-40 -138 -6 -317q10 -53 38 -87q34 -41 83 -41q76 0 149 40v481q-48 21 -104 21h-22zM253 74q-104 93 -133 246q-45 239 12 437q75 261 367 283q22 2 42 2q53 0 104 -10v491h260v-1521h-225l-5 8q-90 -30 -179 -30
q-140 0 -243 94z" />
    <glyph glyph-name="e" unicode="e" horiz-adv-x="977" 
d="M352 653l262 49q-21 84 -102 84q-116 0 -160 -133zM242 63q-107 84 -142 223q-57 232 -3 422q45 158 155 248q110 89 260 89q143 0 241 -87q98 -88 122 -238q14 -85 5 -143l-12 -92l-524 -97q4 -19 9 -40q26 -108 140 -108q81 0 132 47l62 57l197 -167l-75 -73
q-127 -124 -316 -124q-145 0 -251 83z" />
    <glyph glyph-name="f" unicode="f" horiz-adv-x="765" 
d="M192 0v761h-135v259h135v101q0 299 205 384q73 30 156 30q45 0 90 -9l103 -19l-72 -249l-84 14q-19 3 -37 3q-32 0 -56 -10q-26 -10 -35 -37q-11 -31 -11 -107v-101h190v-259h-190v-761h-259z" />
    <glyph glyph-name="g" unicode="g" horiz-adv-x="956" 
d="M330 659q-34 -179 6 -317q15 -53 44 -75q29 -21 84 -21q73 0 136 30v471q-73 40 -149 40q-96 0 -121 -128zM373 -493q-220 64 -245 303l-10 99l259 15l10 -89q5 -45 17 -59q9 -10 40 -19q23 -7 54 -7q33 0 57 10q34 14 40 26q5 12 5 69v147q-66 -16 -136 -16
q-141 0 -239 74q-99 74 -138 210q-57 197 -12 437q29 152 133 246q103 94 243 94q90 0 178 -30l5 8h226v-1170q0 -116 -32 -183q-46 -99 -174 -152q-72 -30 -156 -30q-66 0 -125 17z" />
    <glyph glyph-name="h" unicode="h" horiz-adv-x="980" 
d="M619 0v666q0 74 -33 99q-18 14 -55 14q-83 0 -171 -38v-741h-260v1521h260v-505q86 23 171 23q156 0 251 -103q96 -103 96 -270v-666h-259z" />
    <glyph glyph-name="i" unicode="i" horiz-adv-x="481" 
d="M118 0h259v1020h-259v-1020zM135 1075q-45 44 -45 108q0 63 45 108q45 44 108 44t108 -44q44 -45 44 -108q0 -64 -44 -108q-45 -45 -108 -45t-108 45z" />
    <glyph glyph-name="j" unicode="j" horiz-adv-x="436" 
d="M-98 -501l-102 20l72 248l84 -14q18 -3 37 -3q32 0 56 10q25 10 35 37q11 31 11 107v1121h259v-1121q0 -299 -205 -384q-73 -30 -157 -30q-45 0 -90 9zM116 1079q-44 45 -44 108t44 108q45 45 108 45q64 0 108 -45q45 -45 45 -108t-45 -108q-44 -45 -108 -45
q-63 0 -108 45z" />
    <glyph glyph-name="k" unicode="k" horiz-adv-x="939" 
d="M638 0l-5 89q-9 142 -126 299q-139 -175 -147 -299l-6 -89h-254v1521h260v-903q33 39 99 114q144 160 171 220q16 36 20 68h257q-3 -50 -21 -112q-38 -131 -206 -320q199 -243 212 -487l6 -101h-260z" />
    <glyph glyph-name="l" unicode="l" horiz-adv-x="516" 
d="M341 -7q-93 11 -156 74q-85 84 -85 232v1232h260v-1232q0 -39 43 -55q21 -8 43 -8l3 -256z" />
    <glyph glyph-name="m" unicode="m" horiz-adv-x="1395" 
d="M1032 0v675q0 62 -30 87q-21 17 -66 17q-60 0 -109 -18q7 -41 7 -86v-675h-260v675q0 71 -19 91q-13 13 -50 13q-76 0 -145 -32v-747h-260v1020h222l6 -8q90 27 177 27q109 0 188 -53q109 53 243 53q159 0 257 -100q98 -101 98 -264v-675h-259z" />
    <glyph glyph-name="n" unicode="n" horiz-adv-x="971" 
d="M610 0v671q0 81 -20 100q-10 9 -46 9h-14q-84 -5 -170 -50v-730h-260v1020h231l9 -18q98 32 175 37q14 1 29 1q139 0 224 -81q101 -95 101 -288v-671h-259z" />
    <glyph glyph-name="o" unicode="o" horiz-adv-x="989" 
d="M389 754q-31 -26 -44 -92q-34 -183 2 -309q33 -113 146 -113q110 0 143 113q36 126 1 309q-22 119 -151 119q-65 0 -97 -27zM245 62q-108 82 -147 219q-54 185 -8 429q30 158 134 244q103 87 262 87q154 0 266 -91q112 -92 141 -240q46 -244 -8 -429q-40 -139 -145 -220
q-106 -81 -247 -81t-248 82z" />
    <glyph glyph-name="p" unicode="p" horiz-adv-x="977" 
d="M360 276q63 -30 136 -30q55 0 84 21q28 22 44 75q40 138 6 317q-10 53 -38 87q-34 41 -83 41q-77 0 -149 -40v-471zM100 -496v1521h226l5 -8q88 30 178 30q140 0 243 -94q104 -93 133 -246q45 -240 -12 -437q-39 -135 -138 -210q-98 -74 -239 -74q-70 0 -136 16v-498
h-260z" />
    <glyph glyph-name="q" unicode="q" horiz-adv-x="1024" 
d="M375 659q-34 -179 6 -317q15 -53 44 -75q29 -21 84 -21q73 0 136 30v471q-73 40 -149 40q-96 0 -121 -128zM645 -496v498q-66 -16 -136 -16q-141 0 -239 74q-99 75 -138 210q-57 197 -12 437q29 153 133 246q103 94 243 94q89 0 177 -30l5 8h227v-1521h-260z" />
    <glyph glyph-name="r" unicode="r" horiz-adv-x="832" 
d="M70 0v1020h260v-19q46 18 80 26q37 8 74 8q140 0 245 -104q40 -40 63 -76l-198 -168q-39 89 -110 89q-7 0 -16 -2q-55 -13 -138 -58v-716h-260z" />
    <glyph glyph-name="s" unicode="s" horiz-adv-x="809" 
d="M389 -20q-162 1 -272 87l-83 64l177 188l68 -49q41 -30 111 -30q55 0 84 31q20 20 18 50q-5 69 -132 121l-7 3q-105 42 -156 84q-90 74 -100 190q-9 104 54 191q64 87 168 112q50 12 96 12q123 0 231 -83l80 -62l-171 -195q-36 36 -68 56q-55 34 -107 20q-26 -7 -24 -28
q1 -19 94 -57l7 -2q278 -113 294 -345q9 -142 -88 -245q-106 -113 -272 -113h-2z" />
    <glyph glyph-name="t" unicode="t" horiz-adv-x="710" 
d="M309 51q-93 83 -93 239v471h-156v260h156v323h259v-323h169v-260h-169v-442q0 -82 67 -93q33 -6 66 5l27 -246l-101 -5h-20q-126 0 -205 71z" />
    <glyph glyph-name="u" unicode="u" horiz-adv-x="997" 
d="M191 78q-91 98 -91 266v675h260v-675q0 -69 24 -91q15 -13 54 -13q85 0 181 49v730h259v-1021h-236l-6 17q-101 -35 -198 -35q-156 0 -247 98z" />
    <glyph glyph-name="v" unicode="v" horiz-adv-x="1047" 
d="M436 0l-25 55q-283 604 -303 861l-8 103h260l7 -87q14 -150 168 -531q152 381 165 531l8 87h259l-8 -103q-20 -255 -297 -860l-26 -56h-200z" />
    <glyph glyph-name="w" unicode="w" horiz-adv-x="1444" 
d="M839 0l-126 417l-125 -417h-209l-26 55q-271 581 -302 861q-7 54 -9 103h260q3 -49 8 -87q20 -159 145 -476l147 502h220l148 -500q110 281 143 474q8 46 8 87h260q-4 -57 -9 -103q-29 -278 -297 -861l-26 -55h-210z" />
    <glyph glyph-name="x" unicode="x" horiz-adv-x="1032" 
d="M690 0q-2 39 -9 85q-17 112 -157 273q-142 -164 -156 -273q-6 -42 -9 -85h-259l9 103q16 197 237 446q-211 222 -235 355q-10 54 -9 111h257q-3 -29 9 -72q14 -54 156 -205q136 144 157 205q14 41 9 72h257q1 -52 -9 -111q-24 -133 -236 -355q221 -249 238 -446l9 -103
h-259z" />
    <glyph glyph-name="y" unicode="y" horiz-adv-x="963" 
d="M294 -465l-94 23l67 251l90 -22q124 -30 196 -30q55 0 55 95v145q-62 -15 -127 -15q-278 0 -360 284q-33 115 -15 662l3 96h260l-3 -104q-16 -503 5 -582q18 -61 43 -81q20 -15 67 -15q71 0 127 28v754h260v-1172q0 -116 -32 -184q-46 -99 -174 -152q-44 -18 -113 -18
q-103 0 -255 37z" />
    <glyph glyph-name="z" unicode="z" horiz-adv-x="945" 
d="M100 0v130q0 107 86 238q52 78 194 239q90 102 129 152h-373v260h707v-130q0 -100 -82 -225q-50 -75 -186 -229q-104 -117 -147 -175h435v-260h-763z" />
    <glyph glyph-name="braceleft" unicode="{" horiz-adv-x="855" 
d="M591 -520q-297 121 -297 436v338q0 80 -24 118q-29 45 -114 78l-61 24v209l60 24q86 33 115 78q24 38 24 119v337q0 316 297 436l92 37l88 -244l-85 -35q-80 -33 -108 -78q-24 -38 -24 -116v-337q0 -206 -121 -325q121 -119 121 -325v-338q0 -78 24 -116q28 -45 108 -78
l85 -34l-88 -245z" />
    <glyph glyph-name="bar" unicode="|" horiz-adv-x="693" 
d="M203 -364h260v2079h-260v-2079z" />
    <glyph glyph-name="braceright" unicode="}" horiz-adv-x="870" 
d="M101 -315l85 34q80 33 108 78q24 38 24 116v338q0 206 121 325q-121 119 -121 325v337q0 78 -24 116q-28 45 -108 78l-85 35l88 244l92 -37q297 -121 297 -436v-337q0 -81 24 -119q29 -45 114 -78l61 -24v-209l-61 -24q-85 -33 -114 -78q-24 -38 -24 -118v-338
q0 -315 -297 -436l-92 -37z" />
    <glyph glyph-name="asciitilde" unicode="~" 
d="M923 878v-156q-63 -72 -122 -97.5t-116 -25.5q-60 0 -177.5 48.5t-176.5 48.5q-51 0 -107.5 -28t-129.5 -112v156q64 73 123 99t114 26q64 0 181.5 -49.5t172.5 -49.5q52 0 108.5 28t129.5 112z" />
    <glyph glyph-name="exclamdown" unicode="&#xa1;" horiz-adv-x="672" 
 />
    <glyph glyph-name="cent" unicode="&#xa2;" horiz-adv-x="1139" 
 />
    <glyph glyph-name="sterling" unicode="&#xa3;" horiz-adv-x="1093" 
d="M129 0v130q0 144 63 430q16 72 23 107h-116v259h138q-1 4 -2 9l-8 30q-42 166 -34 277q11 139 113 219q101 80 271 83h11q160 -2 260 -71q101 -69 124 -193l19 -104l-256 -20l-19 79q-12 49 -134 49q-81 0 -111 -23q-17 -13 -19 -39q-5 -68 27 -193l8 -31q8 -34 12 -72
h194v-259h-213q-10 -54 -34 -163q-37 -165 -48 -244h517v-260h-786z" />
    <glyph glyph-name="currency" unicode="&#xa4;" 
d="M350 560q41 -40 99 -57q29 -8 58 -8t58 8q58 17 99 57q40 41 57 99q9 29 9 58t-9 58q-17 58 -57 99q-41 40 -100 57q-29 8 -58 8t-58 -9q-58 -17 -98 -56q-39 -40 -56 -98q-10 -30 -10 -60q0 -28 9 -56q16 -59 57 -100zM240 903l-118 118l80 81l118 -118q44 30 99 46
q44 14 89 14q41 0 83 -12q57 -17 102 -48l118 118l80 -81l-117 -117q31 -46 48 -102q12 -42 12 -85q0 -42 -12 -85q-17 -56 -48 -102l117 -117l-80 -81l-118 118q-45 -32 -101 -48q-42 -12 -85 -12q-42 0 -85 12q-57 16 -102 48l-118 -118l-80 81l118 117q-32 46 -48 103
q-12 42 -12 84q0 44 13 87q16 55 47 99z" />
    <glyph glyph-name="yen" unicode="&#xa5;" horiz-adv-x="1206" 
d="M104 631h1005v232h-213q160 264 171 497l5 100h-260l-4 -90q-11 -210 -200 -471q-192 260 -203 471l-4 90h-260l5 -100q11 -233 174 -497h-216v-232zM104 583v-235h373v-348h259v348h373v235h-1005z" />
    <glyph glyph-name="brokenbar" unicode="&#xa6;" 
d="M427 371h160v-789h-160v789zM427 1578h160v-789h-160v789z" />
    <glyph glyph-name="section" unicode="&#xa7;" 
d="M545 321q56 16 97 53q73 65 73 166q0 5 -1 10h-2q-1 14 -4 27q-22 61 -113 127q-59 29 -126 29q-78 0 -125 -44.5t-47 -117.5q0 -123 248 -250zM466 -346q113 6 185 69q72 64 72 165q0 125 -316 276q-123 64 -175.5 137t-52.5 177q0 148 89 237q67 65 170 82l-40 19
q-123 64 -175.5 137t-52.5 177q0 148 89 237q82 79 216 86q8 1 17 1h3q66 0 163 -16.5t97 -41.5v-194h-51q-5 81 -80 132q-70 47 -149 51h-15q-78 0 -125 -44.5t-47 -117.5q0 -132 287 -269q149 -67 204.5 -143.5t55.5 -187.5q0 -171 -101 -282q-47 -39 -99 -64
q108 -56 154 -118q55 -77 55 -187q0 -171 -101 -283q-124 -102 -277 -105v1q-6 -1 -13 -1h-3q-66 0 -163 16.5t-97 41.5v194h51q5 -81 80 -132q68 -45 145 -50z" />
    <glyph glyph-name="dieresis" unicode="&#xa8;" horiz-adv-x="1024" 
d="M223 1289l71 72q13 12 25 12q11 0 27 -14l69 -73q10 -14 10 -25q0 -13 -12 -27l-69 -75q-17 -17 -25 -17q-14 0 -25 12l-76 86q-9 12 -9 23q0 13 14 26zM588 1289l71 72q13 12 25 12q11 0 27 -13l69 -74q10 -14 10 -25q0 -13 -12 -26l-69 -76q-17 -17 -25 -17
q-14 0 -25 12l-76 87q-9 11 -9 22q0 13 14 26z" />
    <glyph glyph-name="copyright" unicode="&#xa9;" horiz-adv-x="1893" 
d="M712 295q-108 82 -147 219q-54 185 -7 429q29 158 133 244q103 87 262 87q206 0 326 -152l65 -82l-217 -141l-54 65q-42 50 -120 50q-65 0 -96 -27q-32 -26 -44 -92q-35 -183 1 -309q33 -113 146 -113q70 0 109 46l54 66l217 -141l-64 -82q-117 -149 -316 -149
q-140 0 -248 82zM517 1163q-174 -174 -174 -420q0 -245 174 -420q175 -174 420 -174q246 0 420 174q175 175 175 420q0 246 -175 420q-174 175 -420 175q-245 0 -420 -175zM345 151q-246 246 -246 592q0 347 246 593t592 246q347 0 593 -246t246 -593q0 -346 -246 -592
t-593 -246q-346 0 -592 246z" />
    <glyph glyph-name="ordfeminine" unicode="&#xaa;" horiz-adv-x="648" 
 />
    <glyph glyph-name="guillemotleft" unicode="&#xab;" horiz-adv-x="944" 
d="M174 479l342 303h14v-37l-205 -266l205 -266v-37h-14zM487 479l342 303h14v-37l-205 -266l205 -266v-37h-14z" />
    <glyph glyph-name="logicalnot" unicode="&#xac;" 
d="M87 767h840v-491l-1 -1h-98v392h-741v100z" />
    <glyph glyph-name="registered" unicode="&#xae;" horiz-adv-x="1902" 
d="M1311 341q-14 55 -88 185q-18 33 -26 48q172 94 172 341q0 166 -133 268q-120 93 -284 93h-287q129 67 273 67q246 0 420 -175q175 -174 175 -420q0 -273 -210 -452zM861 1016h91q41 0 81 -13q76 -27 76 -91q0 -58 -12 -83t-45 -36q-87 -31 -191 -62v285zM861 221v239
q43 12 91 27q8 -13 13 -22q77 -122 84 -166l14 -78h148q-128 -67 -273 -67q-144 0 -273 67h196zM415 1029q68 127 187 209v-979q-119 82 -187 209q-71 131 -71 280q0 150 71 281zM346 1341q-246 -246 -246 -593q0 -346 246 -592t592 -246q347 0 593 246t246 592
q0 347 -246 593t-593 246q-346 0 -592 -246z" />
    <glyph glyph-name="macron" unicode="&#xaf;" horiz-adv-x="670" 
 />
    <glyph glyph-name="degree" unicode="&#xb0;" horiz-adv-x="674" 
d="M339 1372q-86 0 -147.5 -61t-61.5 -148t61 -147t148 -60t147 60t60 147t-60.5 148t-146.5 61zM339 1442q115 0 196 -81.5t81 -196.5q0 -114 -82 -196t-197 -82q-117 0 -197 81t-80 197t81.5 197t197.5 81z" />
    <glyph glyph-name="plusminus" unicode="&#xb1;" 
 />
    <glyph glyph-name="uni00B2" unicode="&#xb2;" 
 />
    <glyph glyph-name="uni00B3" unicode="&#xb3;" 
 />
    <glyph glyph-name="acute" unicode="&#xb4;" horiz-adv-x="1024" 
d="M607 1375q35 35 55.5 47t40.5 12q33 0 53.5 -20t20.5 -51q0 -22 -15.5 -42t-46.5 -40l-330 -203h-69z" />
    <glyph glyph-name="mu" unicode="&#xb5;" horiz-adv-x="1180" 
 />
    <glyph glyph-name="paragraph" unicode="&#xb6;" horiz-adv-x="1024" 
d="M929 1435v-70h-127v-1365h-82v1365h-166v-1365h-84v738q-174 8 -275.5 102.5t-101.5 245.5q0 157 107.5 253t285.5 96h443z" />
    <glyph glyph-name="periodcentered" unicode="&#xb7;" horiz-adv-x="508" 
d="M145 740l82 84q15 14 29 14q13 0 31 -16l80 -86q12 -16 12 -29q0 -15 -14 -31l-80 -88q-20 -20 -29 -20q-16 0 -29 14l-88 101q-10 13 -10 26q0 15 16 31z" />
    <glyph glyph-name="periodcentered" unicode="&#x2219;" horiz-adv-x="508" 
d="M145 740l82 84q15 14 29 14q13 0 31 -16l80 -86q12 -16 12 -29q0 -15 -14 -31l-80 -88q-20 -20 -29 -20q-16 0 -29 14l-88 101q-10 13 -10 26q0 15 16 31z" />
    <glyph glyph-name="cedilla" unicode="&#xb8;" horiz-adv-x="1024" 
d="M360 -290q85 -52 152 -52q66 0 94.5 21.5t28.5 66.5t-49 64q-40 16 -102 16q-16 0 -34 -2l48 176h63l-37 -104q32 4 62 5q86 0 134 -40.5t48 -113.5q0 -76 -58.5 -120.5t-160.5 -44.5q-109 0 -189 32v96z" />
    <glyph glyph-name="uni00B9" unicode="&#xb9;" 
 />
    <glyph glyph-name="ordmasculine" unicode="&#xba;" horiz-adv-x="718" 
 />
    <glyph glyph-name="guillemotright" unicode="&#xbb;" horiz-adv-x="944" 
d="M115 176h-14v37l205 266l-205 266v37h14l342 -303zM428 176h-14v37l205 266l-205 266v37h14l342 -303z" />
    <glyph glyph-name="onequarter" unicode="&#xbc;" horiz-adv-x="1708" 
 />
    <glyph glyph-name="onehalf" unicode="&#xbd;" horiz-adv-x="1964" 
 />
    <glyph glyph-name="threequarters" unicode="&#xbe;" horiz-adv-x="1708" 
 />
    <glyph glyph-name="questiondown" unicode="&#xbf;" horiz-adv-x="748" 
 />
    <glyph glyph-name="Agrave" unicode="&#xc0;" horiz-adv-x="1148" 
d="M687 668q-53 162 -120 346q-66 -185 -118 -346h238zM833 -6l-5 90q-6 113 -64 324h-391q-57 -211 -63 -324l-4 -90h-260l5 100q18 371 388 1300l23 60h208l24 -59q375 -930 393 -1301l5 -100h-259zM537 1414l-237 383h305l237 -383h-305z" />
    <glyph glyph-name="Aacute" unicode="&#xc1;" horiz-adv-x="1166" 
d="M690 674q-52 161 -120 346q-66 -185 -118 -346h238zM836 0l-5 90q-6 113 -64 324h-391q-57 -211 -63 -324l-4 -90h-260l5 100q18 370 387 1300l24 60h208l24 -59q375 -929 393 -1301l5 -100h-259zM298 1420l237 383h305l-237 -383h-305z" />
    <glyph glyph-name="Acircumflex" unicode="&#xc2;" horiz-adv-x="1168" 
d="M694 674q-53 162 -120 346q-66 -185 -118 -346h238zM840 0l-5 90q-6 113 -64 324h-391q-57 -211 -63 -324l-4 -90h-260l5 100q18 370 387 1300l24 60h208l24 -59q375 -929 393 -1301l5 -100h-259zM667 1420l-91 147l-91 -147h-305l237 383h318l237 -383h-305z" />
    <glyph glyph-name="Atilde" unicode="&#xc3;" horiz-adv-x="1171" 
d="M693 674q-53 163 -120 346q-67 -186 -118 -346h238zM839 0l-5 90q-6 113 -64 324h-391q-57 -211 -63 -324l-4 -90h-260l5 100q18 371 387 1300l24 60h208l24 -59q375 -930 393 -1301l5 -100h-259zM143 1423l12 106q15 135 127 188q17 8 385 9h7q35 0 49 1l10 71h257
l-10 -105q-13 -141 -128 -197q-20 -10 -390 -11h-14q-23 0 -38 -1l-10 -60l-81 -1h-176z" />
    <glyph glyph-name="Adieresis" unicode="&#xc4;" horiz-adv-x="1186" 
d="M707 674q-53 162 -120 346q-66 -185 -118 -346h238zM853 0l-5 90q-6 113 -64 324h-391q-57 -211 -63 -324l-4 -90h-260l5 100q18 371 387 1300l24 60h208l24 -59q375 -929 393 -1301l5 -100h-259zM628 1573q-45 44 -45 108q0 63 45 108q44 45 108 45q63 0 108 -45
t45 -108q0 -64 -45 -108q-45 -45 -108 -45q-64 0 -108 45zM334 1573q-44 44 -44 108q0 63 44 108q45 45 108 45q64 0 109 -45q44 -45 44 -108q0 -64 -44 -108q-45 -45 -109 -45q-63 0 -108 45z" />
    <glyph glyph-name="Aring" unicode="&#xc5;" horiz-adv-x="1166" 
d="M475 674q52 161 118 346q68 -185 120 -346h-238zM1113 100q-18 377 -393 1318l-24 60h-30q51 21 83 67q32 48 32 105q0 77 -55 131q-54 55 -131 55t-131 -55q-55 -54 -55 -131q0 -58 33 -105q31 -46 83 -67h-37l-24 -61q-369 -942 -387 -1317l-5 -100h260l4 90
q6 113 63 324h392q57 -211 63 -324l5 -90h259z" />
    <glyph glyph-name="AE" unicode="&#xc6;" horiz-adv-x="1554" 
d="M705 678l-42 303q-80 -162 -143 -303h185zM800 0l-58 418h-329q-79 -213 -87 -326l-6 -88h-260l7 101q25 394 519 1289l37 67h779v-259h-508l35 -250h392v-259h-356l61 -433h455v-260h-681z" />
    <glyph glyph-name="Ccedilla" unicode="&#xc7;" horiz-adv-x="1399" 
 />
    <glyph glyph-name="Egrave" unicode="&#xc8;" horiz-adv-x="950" 
d="M100 1461v-1461h786v260h-526v433h438v259h-438v250h482v259h-742zM245 1803l237 -383h305l-237 383h-305z" />
    <glyph glyph-name="Eacute" unicode="&#xc9;" horiz-adv-x="966" 
d="M100 1461v-1461h786v260h-526v433h438v259h-438v250h482v259h-742zM461 1803l-237 -383h305l237 383h-305z" />
    <glyph glyph-name="Ecircumflex" unicode="&#xca;" horiz-adv-x="956" 
d="M103 1461v-1461h786v260h-527v433h438v259h-438v250h483v259h-742zM317 1803l-237 -383h305l91 147l91 -147h305l-237 383h-318z" />
    <glyph glyph-name="Edieresis" unicode="&#xcb;" horiz-adv-x="963" 
d="M100 1461v-1461h786v260h-526v433h438v259h-438v250h482v259h-742zM532 1573q-45 44 -45 108q0 63 45 108t108 45t108 -45t45 -108q0 -64 -45 -108q-45 -45 -108 -45t-108 45zM239 1573q-45 44 -45 108q0 63 45 108q44 45 108 45q63 0 108 -45t45 -108q0 -64 -45 -108
q-45 -45 -108 -45q-64 0 -108 45z" />
    <glyph glyph-name="Igrave" unicode="&#xcc;" horiz-adv-x="496" 
d="M122 0h260v1460h-260v-1460zM0 1802l237 -382h305l-237 382h-305z" />
    <glyph glyph-name="Iacute" unicode="&#xcd;" horiz-adv-x="493" 
d="M123 0h260v1460h-260v-1460zM237 1802l-237 -382h305l237 382h-305z" />
    <glyph glyph-name="Icircumflex" unicode="&#xce;" horiz-adv-x="502" 
d="M113 0h260v1460h-260v-1460zM89 1802l-237 -382h305l91 147l91 -147h305l-237 382h-318z" />
    <glyph glyph-name="Idieresis" unicode="&#xcf;" horiz-adv-x="502" 
d="M123 0h259v1460h-259v-1460zM291 1572q-45 45 -45 108t45 108t108 45t108 -45t45 -108t-45 -108t-108 -45t-108 45zM-2 1572q-45 45 -45 108t45 108t108 45t108 -45t45 -108t-45 -108t-108 -45t-108 45z" />
    <glyph glyph-name="Eth" unicode="&#xd0;" horiz-adv-x="1518" 
 />
    <glyph glyph-name="Ntilde" unicode="&#xd1;" horiz-adv-x="1554" 
 />
    <glyph glyph-name="Ograve" unicode="&#xd2;" horiz-adv-x="1151" 
d="M409 1189q-26 -22 -38 -84q-11 -60 -12 -376q0 -323 14 -376q16 -57 44 -78q45 -35 159 -35q113 0 156 32q27 20 44 81q14 54 14 376q-1 316 -12 376q-12 62 -45 86q-46 34 -164 34t-160 -36zM123 281q-26 89 -23 463q3 343 16 410q62 330 453 330q401 0 464 -330
q13 -67 16 -410q3 -374 -23 -463q-52 -180 -196 -252q-99 -49 -254 -49q-366 0 -453 301zM481 1421l-237 382h305l237 -382h-305z" />
    <glyph glyph-name="Oacute" unicode="&#xd3;" horiz-adv-x="1151" 
d="M409 1189q-26 -22 -38 -84q-11 -60 -12 -376q0 -323 14 -376q16 -57 43 -78q46 -35 160 -35q113 0 156 32q27 20 44 81q14 54 14 376q-1 316 -12 376q-12 62 -45 86q-46 34 -164 34t-160 -36zM123 281q-26 89 -23 463q3 343 16 410q62 330 453 330q401 0 464 -330
q13 -67 16 -410q3 -374 -23 -463q-52 -180 -196 -252q-99 -49 -254 -49q-366 0 -453 301zM241 1421l237 382h305l-237 -382h-305z" />
    <glyph glyph-name="Ocircumflex" unicode="&#xd4;" horiz-adv-x="1151" 
d="M409 1189q-26 -22 -38 -84q-11 -60 -12 -376q0 -323 14 -376q16 -57 44 -78q45 -35 159 -35q113 0 156 32q27 20 44 81q14 54 14 376q-1 316 -12 376q-12 62 -45 86q-46 34 -164 34t-160 -36zM123 281q-26 89 -23 463q3 343 16 410q62 330 453 330q401 0 464 -330
q13 -67 16 -410q3 -374 -23 -463q-52 -180 -196 -252q-99 -49 -254 -49q-366 0 -453 301zM666 1421l-92 147l-91 -147h-305l237 382h319l237 -382h-305z" />
    <glyph glyph-name="Otilde" unicode="&#xd5;" horiz-adv-x="1160" 
d="M409 1189q-26 -22 -38 -84q-11 -60 -12 -376q0 -323 13 -376q17 -57 44 -78q46 -35 160 -35q113 0 156 32q27 20 44 81q14 54 14 376q-1 316 -12 376q-12 62 -45 86q-46 34 -164 34t-160 -36zM123 281q-26 89 -23 463q3 343 16 410q62 330 453 330q401 0 464 -330
q13 -67 16 -410q3 -374 -23 -463q-52 -180 -196 -252q-99 -49 -254 -49q-366 0 -453 301zM255 1424l12 106q15 135 127 188q59 27 175 27h7q35 1 49 2l10 70h258l-11 -104q-13 -141 -128 -197q-61 -30 -180 -30h-15q-22 0 -37 -1l-10 -60l-81 -1h-176z" />
    <glyph glyph-name="Odieresis" unicode="&#xd6;" horiz-adv-x="1148" 
d="M409 1189q-26 -22 -38 -84q-11 -60 -12 -376q0 -323 14 -376q16 -57 44 -78q45 -35 159 -35q113 0 156 32q27 20 44 81q14 54 14 376q-1 316 -12 376q-12 62 -45 86q-46 34 -164 34t-160 -36zM123 281q-26 89 -23 463q3 343 16 410q62 330 453 330q402 0 464 -330
q13 -67 16 -410q3 -374 -23 -463q-52 -180 -196 -252q-99 -49 -254 -49q-366 0 -453 301zM613 1573q-45 45 -45 109q0 63 45 108q45 44 108 44t108 -44q45 -45 45 -108q0 -64 -45 -109q-45 -44 -108 -44t-108 44zM320 1573q-45 45 -45 109q0 63 45 108q45 44 108 44t108 -44
q45 -45 45 -108q0 -64 -45 -109q-45 -44 -108 -44t-108 44z" />
    <glyph glyph-name="multiply" unicode="&#xd7;" 
d="M507 618l-247 -247l-99 99l247 247l-247 248l99 98l247 -247l248 247l98 -99l-247 -247l247 -247l-99 -99z" />
    <glyph glyph-name="Oslash" unicode="&#xd8;" horiz-adv-x="1215" 
d="M451 1189q-26 -22 -38 -84q-10 -59 -11 -378q58 71 177 209q147 170 207 247q-45 42 -175 42q-117 0 -160 -36zM618 240q114 0 157 32q26 20 44 81q18 70 13 478q-25 -29 -54 -62q-262 -304 -352 -447q35 -82 192 -82zM324 52l-5 -51h-259l8 103q10 120 85 264
q-45 522 5 786q63 331 453 331q188 0 301 -74l10 51h259l-17 -110q-13 -89 -87 -206q12 -102 14 -420q2 -358 -22 -445q-52 -180 -196 -252q-99 -49 -255 -49q-183 0 -294 72z" />
    <glyph glyph-name="Ugrave" unicode="&#xd9;" horiz-adv-x="1061" 
d="M275 63q-113 83 -152 218q-33 116 -19 1088l2 94h259l-1 -96q-13 -911 9 -1016q17 -58 71 -88q42 -23 88 -23q123 0 156 113q22 104 9 1014l-2 96h260l1 -94q15 -972 -19 -1088q-39 -137 -150 -219q-110 -82 -255 -82t-257 83zM388 1422l-237 382h305l237 -382h-305z" />
    <glyph glyph-name="Uacute" unicode="&#xda;" horiz-adv-x="1055" 
d="M275 63q-113 83 -152 218q-33 116 -19 1088l2 94h260l-2 -96q-13 -911 9 -1016q17 -58 71 -88q42 -23 88 -23q123 0 156 113q22 104 9 1014l-2 96h260l1 -94q15 -972 -19 -1088q-39 -137 -150 -219q-110 -82 -255 -82q-144 0 -257 83zM249 1422l237 382h305l-237 -382
h-305z" />
    <glyph glyph-name="Ucircumflex" unicode="&#xdb;" horiz-adv-x="1067" 
d="M275 63q-113 83 -152 218q-33 116 -19 1088l2 94h260l-2 -96q-13 -910 9 -1016q17 -58 71 -88q42 -23 88 -23q123 0 156 113q22 104 9 1014l-2 96h260l1 -94q15 -972 -19 -1088q-39 -137 -150 -219q-110 -82 -255 -82q-144 0 -257 83zM622 1422l-92 147l-91 -147h-305
l237 382h318l237 -382h-304z" />
    <glyph glyph-name="Udieresis" unicode="&#xdc;" horiz-adv-x="1058" 
d="M275 63q-113 83 -152 218q-33 116 -19 1088l2 94h259l-1 -96q-13 -910 9 -1016q17 -58 71 -88q42 -23 88 -23q123 0 156 113q22 104 9 1014l-2 96h260l1 -94q15 -972 -19 -1088q-39 -137 -150 -219q-110 -82 -255 -82q-144 0 -257 83zM569 1574q-45 45 -45 108
q0 64 45 108q45 45 108 45t108 -45q45 -44 45 -108q0 -63 -45 -108t-108 -45t-108 45zM276 1574q-45 45 -45 108q0 64 45 108q45 45 108 45t108 -45q45 -44 45 -108q0 -63 -45 -108t-108 -45t-108 45z" />
    <glyph glyph-name="Yacute" unicode="&#xdd;" horiz-adv-x="1233" 
 />
    <glyph glyph-name="Thorn" unicode="&#xde;" horiz-adv-x="1120" 
 />
    <glyph glyph-name="germandbls" unicode="&#xdf;" horiz-adv-x="1251" 
 />
    <glyph glyph-name="agrave" unicode="&#xe0;" horiz-adv-x="919" 
d="M338 362q0 -122 105 -122q82 0 137 42v175q-33 18 -109 18q-133 0 -133 -113zM179 85q-101 105 -101 277q0 164 110 269q109 104 283 104q57 0 103 -7q-9 42 -51 54q-22 6 -52 6q-76 0 -152 -34l-81 -36l-122 229l92 42q128 58 263 58q66 0 122 -15q160 -45 216 -186
q31 -78 31 -214v-634h-227l-5 10q-86 -28 -165 -28q-164 0 -264 105zM453 1044l-237 383h305l237 -383h-305z" />
    <glyph glyph-name="aacute" unicode="&#xe1;" horiz-adv-x="919" 
d="M330 362q0 -122 105 -122q82 0 137 42v175q-33 18 -109 18q-133 0 -133 -113zM171 85q-101 105 -101 277q0 164 110 269q109 104 283 104q57 0 103 -7q-9 42 -51 54q-22 6 -52 6q-76 0 -152 -34l-81 -36l-122 229l92 42q128 58 263 58q66 0 122 -15q160 -45 216 -186
q31 -78 31 -214v-634h-226l-6 10q-86 -28 -165 -28q-164 0 -264 105zM140 1044l237 383h305l-237 -383h-305z" />
    <glyph glyph-name="acircumflex" unicode="&#xe2;" horiz-adv-x="922" 
d="M335 362q0 -122 105 -122q83 0 137 42v175q-33 18 -109 18q-133 0 -133 -113zM176 85q-101 105 -101 277q0 164 110 269q110 104 283 104q57 0 103 -7q-9 42 -51 54q-22 6 -51 6q-77 0 -153 -34l-81 -36l-122 229l92 42q128 58 263 58q66 0 122 -15q160 -45 216 -186
q31 -78 31 -214v-634h-226l-6 10q-86 -28 -165 -28q-164 0 -264 105zM547 1044l-91 148l-91 -148h-305l237 383h318l237 -383h-305z" />
    <glyph glyph-name="atilde" unicode="&#xe3;" horiz-adv-x="919" 
d="M330 362q0 -122 105 -122q82 0 137 42v175q-33 18 -109 18q-133 0 -133 -113zM171 85q-101 105 -101 277q0 164 110 269q109 104 283 104q57 0 103 -7q-9 42 -51 54q-22 6 -52 6q-76 0 -152 -34l-81 -36l-122 229l92 42q128 58 263 58q66 0 122 -15q160 -45 216 -186
q31 -78 31 -214v-634h-226l-6 10q-86 -28 -165 -28q-164 0 -264 105zM115 1034l12 106q15 134 127 187q58 28 174 28h9q33 0 48 2l10 70h257l-10 -105q-13 -141 -128 -197q-61 -29 -180 -30h-16q-22 0 -36 -1l-10 -59l-81 -1h-176z" />
    <glyph glyph-name="adieresis" unicode="&#xe4;" horiz-adv-x="925" 
d="M330 362q0 -122 105 -122q82 0 137 42v175q-33 18 -109 18q-133 0 -133 -113zM171 85q-101 105 -101 277q0 164 110 269q109 104 283 104q57 0 103 -7q-9 42 -51 54q-22 6 -52 6q-76 0 -152 -34l-81 -36l-122 229l92 42q128 58 263 58q66 0 122 -15q160 -45 216 -186
q31 -78 31 -214v-634h-226l-6 10q-86 -28 -165 -28q-164 0 -264 105zM489 1166q-44 45 -44 108t44 108q45 45 108 45q64 0 109 -45q44 -45 44 -108t-44 -108q-45 -45 -109 -45q-63 0 -108 45zM196 1166q-45 45 -45 108t45 108t108 45q64 0 108 -45q45 -45 45 -108t-45 -108
q-44 -45 -108 -45q-63 0 -108 45z" />
    <glyph glyph-name="aring" unicode="&#xe5;" horiz-adv-x="916" 
d="M572 282q-55 -42 -137 -42q-105 0 -105 122q0 113 133 113q76 0 109 -18v-175zM675 1208q0 90 -64 155q-64 64 -155 64q-90 0 -155 -64q-64 -65 -64 -155q0 -111 90 -177q-68 -15 -127 -42l-92 -42l122 -229l81 36q76 34 152 34q30 0 52 -6q42 -12 51 -54q-46 7 -103 7
q-174 0 -283 -104q-110 -105 -110 -269q0 -172 101 -277q100 -105 264 -105q79 0 165 28l6 -10h226v634q0 136 -31 213q-56 141 -215 186q89 66 89 177z" />
    <glyph glyph-name="ae" unicode="&#xe6;" horiz-adv-x="1454" 
d="M282 698q82 37 181 37q56 0 100 -7q-10 43 -51 51q-91 18 -218 -31q-30 -12 -68 -33l-130 170l83 57q145 99 303 99q41 0 79 -7q96 -19 161 -78q109 89 260 89q144 0 241 -87q98 -88 122 -238q14 -82 6 -142l-13 -93l-524 -97q4 -20 9 -39q27 -109 140 -109q81 0 132 47
l62 57l197 -167l-75 -73q-126 -124 -316 -124q-144 0 -250 83q-121 -83 -278 -83q-164 0 -264 105q-101 105 -101 277q0 220 181 321zM822 653l262 49q-21 84 -102 84q-116 0 -160 -133zM330 362q0 -122 105 -122q82 0 137 42q-1 3 -1 4q-23 91 -27 182q-31 7 -81 7
q-133 0 -133 -113z" />
    <glyph glyph-name="ccedilla" unicode="&#xe7;" horiz-adv-x="905" 
 />
    <glyph glyph-name="egrave" unicode="&#xe8;" horiz-adv-x="983" 
d="M351 653l262 49q-21 84 -102 84q-116 0 -160 -133zM241 63q-107 84 -142 223q-57 233 -3 422q45 158 155 248q110 89 260 89q143 0 241 -87q98 -88 122 -238q14 -83 5 -143l-12 -92l-524 -97q4 -20 9 -40q26 -108 140 -108q81 0 132 47l62 57l197 -167l-75 -73
q-127 -124 -316 -124q-145 0 -251 83zM459 1044l-237 383h305l237 -383h-305z" />
    <glyph glyph-name="eacute" unicode="&#xe9;" horiz-adv-x="977" 
d="M351 653l262 49q-21 84 -102 84q-116 0 -160 -133zM241 64q-108 85 -142 222q-57 232 -3 422q45 158 155 248q110 89 260 89q143 0 241 -87q98 -88 122 -238q13 -82 5 -142l-12 -93l-524 -97q4 -21 9 -39q26 -109 140 -109q81 0 132 47l62 57l197 -167l-75 -73
q-126 -124 -316 -124q-143 0 -251 84zM173 1044l237 383h305l-237 -383h-305z" />
    <glyph glyph-name="ecircumflex" unicode="&#xea;" horiz-adv-x="974" 
d="M351 653l262 49q-21 84 -102 84q-116 0 -160 -133zM241 63q-107 84 -142 223q-57 232 -3 422q45 158 155 248q110 89 260 89q143 0 241 -87q98 -88 122 -238q13 -82 5 -142l-12 -93l-524 -97l8 -40q27 -108 140 -108q82 0 133 47l62 57l197 -167l-75 -73
q-127 -124 -317 -124q-144 0 -250 83zM568 1044l-91 148l-91 -148h-305l237 383h318l237 -383h-305z" />
    <glyph glyph-name="edieresis" unicode="&#xeb;" horiz-adv-x="977" 
d="M351 653l262 49q-21 84 -102 84q-116 0 -160 -133zM241 63q-107 84 -142 223q-57 232 -3 422q45 158 155 248q110 89 260 89q143 0 241 -87q98 -88 122 -238q14 -84 5 -143l-12 -92l-524 -97q4 -20 9 -40q26 -108 139 -108q82 0 133 47l62 57l197 -167l-75 -73
q-127 -124 -317 -124q-144 0 -250 83zM515 1166q-45 45 -45 108t45 108t108 45q64 0 108 -45q45 -45 45 -108t-45 -108q-44 -45 -108 -45q-63 0 -108 45zM222 1166q-45 45 -45 108t45 108t108 45t108 -45t45 -108t-45 -108t-108 -45t-108 45z" />
    <glyph glyph-name="igrave" unicode="&#xec;" horiz-adv-x="514" 
d="M122 0h260v1020h-260v-1020zM40 1428l237 -382h305l-237 382h-305z" />
    <glyph glyph-name="iacute" unicode="&#xed;" horiz-adv-x="514" 
d="M131 0h260v1020h-260v-1020zM237 1428l-237 -382h305l237 382h-305z" />
    <glyph glyph-name="icircumflex" unicode="&#xee;" horiz-adv-x="514" 
d="M124 0h260v1020h-260v-1020zM95 1428l-237 -382h305l91 147l91 -147h305l-237 382h-318z" />
    <glyph glyph-name="idieresis" unicode="&#xef;" horiz-adv-x="514" 
d="M126 0h259v1020h-259v-1020zM294 1167q-45 45 -45 109q0 63 45 108q45 44 108 44t108 -44q45 -45 45 -108q0 -64 -45 -109q-45 -44 -108 -44t-108 44zM1 1167q-45 45 -45 109q0 63 45 108q45 44 108 44t108 -44q45 -45 45 -108q0 -64 -45 -109q-45 -44 -108 -44t-108 44z
" />
    <glyph glyph-name="eth" unicode="&#xf0;" horiz-adv-x="1139" 
 />
    <glyph glyph-name="ntilde" unicode="&#xf1;" horiz-adv-x="1108" 
 />
    <glyph glyph-name="ograve" unicode="&#xf2;" horiz-adv-x="980" 
d="M380 754q-31 -26 -43 -92q-35 -183 1 -309q33 -113 146 -113q110 0 143 113q36 126 1 309q-22 119 -151 119q-65 0 -97 -27zM236 62q-108 82 -147 219q-54 185 -8 429q30 158 134 244q103 87 262 87q154 0 266 -91q112 -92 141 -240q46 -243 -8 -429q-40 -139 -145 -220
q-106 -81 -247 -81t-248 82zM473 1044l-237 383h305l237 -383h-305z" />
    <glyph glyph-name="oacute" unicode="&#xf3;" horiz-adv-x="980" 
d="M390 754q-31 -26 -43 -92q-35 -183 1 -309q33 -113 146 -113q110 0 143 113q36 126 1 309q-22 119 -151 119q-65 0 -97 -27zM246 62q-108 82 -147 219q-54 186 -8 429q30 158 134 244q103 87 262 87q154 0 266 -91q112 -92 141 -240q46 -243 -8 -429q-40 -139 -145 -220
q-106 -81 -247 -81t-248 82zM204 1044l237 383h305l-237 -383h-305z" />
    <glyph glyph-name="ocircumflex" unicode="&#xf4;" horiz-adv-x="983" 
d="M390 754q-31 -26 -43 -92q-35 -183 1 -309q33 -113 146 -113q110 0 143 113q36 126 1 309q-22 119 -151 119q-65 0 -97 -27zM246 62q-108 82 -147 219q-54 186 -7 429q29 158 133 244q103 87 262 87q154 0 266 -91q112 -92 141 -240q46 -244 -8 -429q-40 -139 -145 -220
q-106 -81 -247 -81t-248 82zM584 1044l-91 148l-92 -148h-305l237 383h319l237 -383h-305z" />
    <glyph glyph-name="otilde" unicode="&#xf5;" horiz-adv-x="974" 
d="M380 754q-31 -26 -43 -92q-35 -183 1 -309q33 -113 146 -113q110 0 143 113q36 126 1 309q-22 119 -151 119q-65 0 -97 -27zM236 62q-108 82 -147 219q-54 186 -8 429q30 158 134 244q103 87 262 87q154 0 266 -91q112 -92 141 -240q46 -244 -8 -429q-40 -139 -145 -220
q-106 -81 -247 -81t-248 82zM163 1034l12 106q15 134 127 187q59 28 174 28h10q32 0 47 1l10 71h258l-11 -105q-13 -141 -128 -197q-60 -29 -179 -30h-17q-22 0 -36 -1l-10 -59l-81 -1h-176z" />
    <glyph glyph-name="odieresis" unicode="&#xf6;" horiz-adv-x="983" 
d="M390 754q-31 -26 -43 -92q-35 -183 1 -309q33 -113 146 -113q110 0 143 113q36 126 1 309q-22 119 -151 119q-65 0 -97 -27zM246 62q-108 82 -147 219q-54 185 -8 429q30 158 134 244q103 87 262 87q154 0 266 -91q112 -92 141 -240q46 -243 -8 -429q-40 -139 -145 -220
q-106 -81 -247 -81t-248 82zM531 1166q-45 45 -45 108t45 108t108 45t108 -45t45 -108t-45 -108t-108 -45t-108 45zM238 1166q-45 45 -45 108t45 108t108 45t108 -45t45 -108t-45 -108t-108 -45t-108 45z" />
    <glyph glyph-name="divide" unicode="&#xf7;" 
d="M87 647v140h839l1 -1v-139h-840zM398 408l82 84q15 14 29 14q13 0 31 -16l80 -86q12 -16 12 -29q0 -15 -14 -31l-80 -88q-20 -20 -29 -20q-16 0 -29 14l-88 101q-10 13 -10 26q0 15 16 31zM398 1101l82 84q15 14 29 14q13 0 31 -16l80 -86q12 -16 12 -29q0 -15 -14 -31
l-80 -88q-20 -20 -29 -20q-16 0 -29 14l-88 101q-10 13 -10 26q0 15 16 31z" />
    <glyph glyph-name="oslash" unicode="&#xf8;" horiz-adv-x="1073" 
d="M437 754q-29 -26 -41 -88q-7 -37 -10 -104q18 21 51 58q91 103 132 154q-19 5 -41 5q-62 0 -91 -25zM535 254q103 0 134 108q11 38 13 116q-24 -28 -36 -41q-104 -118 -152 -177q19 -6 41 -6zM90 -30l8 103q6 77 49 164q-10 23 -17 48q-54 187 -7 433q30 159 137 249
q108 90 268 90q91 0 170 -34l5 33h275l-10 -103q-6 -73 -48 -155q16 -39 24 -80q46 -246 -8 -433q-41 -143 -149 -226t-252 -83q-87 0 -165 33l-5 -39h-275z" />
    <glyph glyph-name="ugrave" unicode="&#xf9;" horiz-adv-x="1003" 
d="M191 78q-91 98 -91 266v675h260v-675q0 -69 24 -91q15 -13 54 -13q85 0 181 49v730h259v-1021h-236l-6 17q-101 -35 -198 -35q-156 0 -247 98zM468 1044l-237 383h305l237 -383h-305z" />
    <glyph glyph-name="uacute" unicode="&#xfa;" horiz-adv-x="1000" 
d="M191 78q-91 98 -91 266v675h260v-675q0 -69 24 -91q15 -13 54 -13q85 0 181 49v730h259v-1021h-236l-6 17q-101 -35 -198 -35q-156 0 -247 98zM176 1044l237 383h305l-237 -383h-305z" />
    <glyph glyph-name="ucircumflex" unicode="&#xfb;" horiz-adv-x="1000" 
d="M198 78q-91 98 -91 266v675h260v-675q0 -69 24 -91q15 -13 54 -13q85 0 181 49v730h259v-1021h-236l-6 17q-101 -35 -198 -35q-156 0 -247 98zM587 1044l-91 148l-91 -148h-305l237 383h318l237 -383h-305z" />
    <glyph glyph-name="udieresis" unicode="&#xfc;" horiz-adv-x="1000" 
d="M191 78q-91 98 -91 266v675h260v-675q0 -69 24 -91q15 -13 54 -13q85 0 181 49v730h259v-1021h-236l-6 17q-101 -35 -198 -35q-156 0 -247 98zM528 1166q-45 45 -45 108t45 108q44 45 108 45q63 0 108 -45t45 -108t-45 -108t-108 -45q-64 0 -108 45zM234 1166
q-44 45 -44 108t44 108q45 45 109 45q63 0 108 -45q44 -45 44 -108t-44 -108q-45 -45 -108 -45q-64 0 -109 45z" />
    <glyph glyph-name="yacute" unicode="&#xfd;" horiz-adv-x="868" 
 />
    <glyph glyph-name="thorn" unicode="&#xfe;" horiz-adv-x="1010" 
 />
    <glyph glyph-name="ydieresis" unicode="&#xff;" horiz-adv-x="868" 
 />
    <glyph glyph-name="dotlessi" unicode="&#x131;" horiz-adv-x="514" 
d="M328 223q0 -173 100 -173h46v-50h-442v50h46q100 0 100 173v432q0 77 -111 77h-48v44q222 69 261 182h48v-735z" />
    <glyph glyph-name="circumflex" unicode="&#x2c6;" horiz-adv-x="1024" 
d="M221 1079l232 355h118l232 -355h-58l-233 216l-233 -216h-58z" />
    <glyph glyph-name="caron" unicode="&#x2c7;" horiz-adv-x="1024" 
d="M221 1434h58l233 -214l233 214h58l-232 -356h-118z" />
    <glyph glyph-name="uni02C9" unicode="&#x2c9;" horiz-adv-x="1024" 
d="M254 1195v125h516v-125h-516z" />
    <glyph glyph-name="breve" unicode="&#x2d8;" horiz-adv-x="1024" 
d="M219 1349h51q17 -73 75 -107t167 -34t166 33.5t74 107.5h51q-20 -133 -94 -201.5t-197 -68.5q-122 0 -197 69t-96 201z" />
    <glyph glyph-name="dotaccent" unicode="&#x2d9;" horiz-adv-x="1024" 
d="M422 1289l69 72q6 6 13 9t14 3q6 0 12.5 -3t12.5 -9l71 -76q5 -4 7 -10t2 -14q-1 -9 -3 -15t-8 -12l-71 -76q-12 -11 -16 -13.5t-7 -2.5q-10 0 -16.5 2.5t-10.5 8.5l-75 87q-4 4 -6 9.5t-2 13.5q0 6 3 12.5t11 13.5z" />
    <glyph glyph-name="ring" unicode="&#x2da;" horiz-adv-x="1024" 
d="M411 1257q0 -42 29 -71t71 -29t71 29t29 71q0 40 -29.5 69.5t-70.5 29.5t-70.5 -29.5t-29.5 -69.5zM335 1257q0 75 51 126t125 51q76 0 127.5 -51.5t51.5 -125.5q0 -75 -51.5 -126.5t-127.5 -51.5q-74 0 -125 51.5t-51 126.5z" />
    <glyph glyph-name="ogonek" unicode="&#x2db;" horiz-adv-x="1024" 
d="M640 0q-71 -62 -110.5 -119.5t-39.5 -112.5q0 -47 27 -75t73 -28q40 0 69.5 15.5t49.5 48.5l28 -16q-36 -63 -90.5 -97t-119.5 -34q-70 0 -114 35.5t-44 90.5q0 76 60.5 156.5t161.5 135.5h49z" />
    <glyph glyph-name="tilde" unicode="&#x2dc;" horiz-adv-x="1024" 
d="M808 1382q-20 -103 -68.5 -154t-126.5 -51h-4q-50 0 -113 23q-66 24 -114 24q-39 0 -60.5 -20.5t-33.5 -71.5h-54q19 106 68 158.5t129 52.5q46 -1 113 -24q64 -23 112 -23h4q36 0 58 20t36 66h54z" />
    <glyph glyph-name="hungarumlaut" unicode="&#x2dd;" horiz-adv-x="1024" 
d="M217 1079l144 273q24 44 45.5 63t46.5 19q28 0 48 -20t20 -47q0 -16 -10.5 -35t-30.5 -41l-205 -212h-58zM502 1079l144 273q24 44 45.5 63t46.5 19q28 0 48 -20t20 -47q0 -16 -10.5 -35t-30.5 -41l-205 -212h-58z" />
    <glyph glyph-name="endash" unicode="&#x2013;" horiz-adv-x="1108" 
d="M56 419v120h996v-120h-996z" />
    <glyph glyph-name="emdash" unicode="&#x2014;" horiz-adv-x="2048" 
d="M0 419v120h2048v-120h-2048z" />
    <glyph glyph-name="quoteleft" unicode="&#x2018;" horiz-adv-x="557" 
d="M165 1061l-18 73q-5 21 -52 89q-106 155 -118 272l-10 104h259l10 -83q6 -49 73 -146q83 -120 95 -199l18 -110h-257z" />
    <glyph glyph-name="quoteright" unicode="&#x2019;" horiz-adv-x="557" 
d="M-33 1061l18 110q12 79 95 199q67 97 73 146l10 83h259l-10 -104q-12 -117 -118 -272q-47 -68 -52 -89l-18 -73h-257z" />
    <glyph glyph-name="quotesinglbase" unicode="&#x201a;" horiz-adv-x="557" 
d="M274 -197l-18 73q-5 21 -52 89q-106 155 -118 272l-10 104h259l10 -83q6 -49 73 -146q83 -120 95 -199l18 -110h-257z" />
    <glyph glyph-name="quotedblleft" unicode="&#x201c;" horiz-adv-x="910" 
d="M165 1061l-18 73q-5 21 -52 89q-106 155 -118 272l-10 104h259l10 -83q6 -49 73 -146q83 -120 95 -199l18 -110h-257zM548 1061l-18 73q-5 21 -52 89q-106 155 -118 272l-10 104h259l10 -83q6 -49 73 -146q83 -120 95 -199l18 -110h-257z" />
    <glyph glyph-name="quotedblright" unicode="&#x201d;" horiz-adv-x="850" 
d="M350 1061l18 110q12 79 95 199q67 97 73 146l10 83h259l-10 -104q-12 -117 -118 -272q-47 -68 -52 -89l-18 -73h-257zM-33 1061l18 110q12 79 95 199q67 97 73 146l10 83h259l-10 -104q-12 -117 -118 -272q-47 -68 -52 -89l-18 -73h-257z" />
    <glyph glyph-name="quotedblbase" unicode="&#x201e;" horiz-adv-x="870" 
d="M298 -342l18 110q12 79 95 199q67 97 73 146l10 83h259l-10 -104q-12 -117 -118 -272q-47 -68 -52 -89l-18 -73h-257zM-85 -342l18 110q12 79 95 199q67 97 73 146l10 83h259l-10 -104q-12 -117 -118 -272q-47 -68 -52 -89l-18 -73h-257z" />
    <glyph glyph-name="dagger" unicode="&#x2020;" 
d="M486 1022q-8 97 -54 178q-57 101 -57 129q0 49 36 78.5t96 29.5q57 0 94.5 -27.5t37.5 -71.5q0 -32 -55 -137q-46 -85 -55 -179q96 8 177 54q101 57 129 57q49 0 79 -36t30 -96q0 -57 -27.5 -94.5t-72.5 -37.5q-32 0 -136 55q-85 46 -179 57q8 -176 110 -277
q-106 -460 -112 -974h-38q-6 514 -114 974q102 101 111 277q-96 -10 -178 -55q-101 -57 -129 -57q-49 0 -78.5 36t-29.5 96q0 57 27.5 94.5t71.5 37.5q32 0 137 -56q85 -46 179 -55z" />
    <glyph glyph-name="daggerdbl" unicode="&#x2021;" 
d="M528 186q94 11 179 57q104 55 136 55q45 0 72.5 -37.5t27.5 -94.5q0 -60 -30 -96t-79 -36q-28 0 -129 57q-81 46 -177 54q9 -94 55 -179q55 -105 55 -137q0 -44 -37.5 -71.5t-94.5 -27.5q-60 0 -96 29.5t-36 78.5q0 28 57 129q46 81 54 178q-94 -9 -179 -55
q-105 -56 -137 -56q-44 0 -71.5 37.5t-27.5 94.5q0 60 29.5 96t78.5 36q28 0 129 -57q82 -45 178 -55q-9 226 -111 398q102 171 111 397q-96 -10 -178 -55q-101 -57 -129 -57q-49 0 -78.5 36t-29.5 96q0 57 27.5 94.5t71.5 37.5q32 0 137 -56q85 -46 179 -55q-8 97 -54 178
q-57 101 -57 129q0 49 36 78.5t96 29.5q57 0 94.5 -27.5t37.5 -71.5q0 -32 -55 -137q-46 -85 -55 -179q96 8 177 54q101 57 129 57q49 0 79 -36t30 -96q0 -57 -27.5 -94.5t-72.5 -37.5q-32 0 -136 55q-85 46 -179 57q8 -226 110 -397q-102 -172 -110 -398z" />
    <glyph glyph-name="bullet" unicode="&#x2022;" horiz-adv-x="1024" 
d="M216 718q0 123 87 209t210 86q122 0 208.5 -86.5t86.5 -208.5t-87.5 -209.5t-209.5 -87.5q-123 0 -209 87t-86 210z" />
    <glyph glyph-name="ellipsis" unicode="&#x2026;" horiz-adv-x="2012" 
d="M147 135q-45 45 -45 108t45 108t108 45t108 -45t45 -108t-45 -108t-108 -45t-108 45zM739 135q-45 45 -45 108t45 108t108 45t108 -45t45 -108t-45 -108t-108 -45t-108 45zM1337 135q-45 45 -45 108t45 108t108 45t108 -45t45 -108t-45 -108t-108 -45t-108 45z" />
    <glyph glyph-name="guilsinglleft" unicode="&#x2039;" horiz-adv-x="631" 
d="M174 479l342 303h14v-37l-205 -266l205 -266v-37h-14z" />
    <glyph glyph-name="guilsinglright" unicode="&#x203a;" horiz-adv-x="631" 
d="M115 176h-14v37l205 266l-205 266v37h14l342 -303z" />
    <glyph glyph-name="fraction" unicode="&#x2044;" horiz-adv-x="342" 
d="M-342 -29l940 1461h84l-938 -1461h-86z" />
    <glyph glyph-name="fraction" unicode="&#x2215;" horiz-adv-x="342" 
d="M-342 -29l940 1461h84l-938 -1461h-86z" />
    <glyph glyph-name="franc" unicode="&#x20a3;" 
d="M247 357h-194v60h194v732q0 235 -103 235h-96v50h915l103 -231h-49q-59 182 -190 182l-316 -1q-102 0 -102 -235v-352h361q100 0 100 63v58h50v-342h-50v60q0 62 -100 62h-361v-281h194v-60h-194v-72q0 -235 102 -235h97v-50h-560v50h96q103 0 103 235v72z" />
    <glyph glyph-name="lira" unicode="&#x20a4;" 
d="M748 1347q-72 31 -160 31h-2q-100 0 -190 -101q-84 -93 -84 -241q0 -15 1 -30q0 -106 33 -213h380v-60h-360q12 -30 26 -60h352v-60h-321q35 -63 35 -138q0 -161 -162 -375h402q130 0 189 132l49 -1l-103 -231h-719l1 50q187 238 187 418q0 77 -34 143l-2 2h-172v60h143
q-14 31 -26 60h-135v60h113q-36 107 -36 193q0 226 123.5 347t310.5 121q75 0 185.5 -14t110.5 -34v-161h-58q-5 61 -77 102z" />
    <glyph glyph-name="peseta" unicode="&#x20a7;" horiz-adv-x="2028" 
d="M409 1384v-662q3 -9 7 -17q41 -102 108 -153q57 -44 116 -44q10 0 19 1q68 8 127 75t87 177q22 87 22 179q0 24 -1 47q-7 116 -49.5 218.5t-108.5 144.5q-56 35 -112 35q-10 0 -21 -1h-194zM1496 908h-179v-685q0 -81 34 -119q28 -31 81 -37l-71 192l49 1
q55 -130 114 -174q57 -44 127 -44h7q92 0 151 52q59 53 59 136q0 102 -259 226q-101 52 -144 112t-43 145q0 121 73 194zM1039 910q-7 -101 -48 -194q-50 -114 -141 -177.5t-190 -63.5q-100 0 -191 64q-33 22 -60 51v-305q0 -235 102 -235h97v-50h-560v50h96q103 0 103 235
v864q0 235 -103 235h-96v50h618q92 -2 181 -62q91 -62 143 -177q50 -113 51 -237h10q216 0 216 355h50v-355h259q42 19 110 20h2q54 0 133.5 -13.5t79.5 -33.5v-159h-42q-4 66 -65.5 108t-133.5 42q-64 0 -102.5 -36.5t-38.5 -96.5q0 -108 235 -220q122 -55 167.5 -117.5
t45.5 -153.5q0 -140 -83 -231q-102 -84 -228 -86q-58 0 -105 11q-28 6 -56 6q-18 0 -36 -3q-28 -5 -59 -5q-124 0 -173.5 57t-57.5 176h-1v687h-129z" />
    <glyph glyph-name="Euro" unicode="&#x20ac;" horiz-adv-x="1290" 
d="M906 757v235h-365q4 110 8 133q12 62 38 84q42 36 160 36q117 0 164 -33q28 -20 41 -67l23 -85l254 48l-25 99q-77 297 -457 297q-390 0 -453 -330q-7 -34 -11 -182h-191v-235h814zM948 352q-17 -47 -43 -64q-43 -28 -151 -28q-114 0 -159 35q-28 21 -44 78
q-6 19 -10 117h365v233h-814v-233h190q5 -140 19 -189q52 -180 197 -252q99 -49 256 -49q345 0 440 269l33 96l-249 72z" />
    <glyph glyph-name="uni2116" unicode="&#x2116;" horiz-adv-x="2102" 
d="M1346 1184q-31 -27 -44 -93q-34 -183 2 -308q33 -114 146 -114q110 0 143 114q36 125 1 308q-22 120 -151 120q-65 0 -97 -27zM1202 492q-108 82 -147 219q-54 185 -8 428q30 158 134 245q103 86 262 86q154 0 266 -91t140 -240q47 -243 -7 -428q-40 -140 -146 -221
q-105 -81 -246 -81t-248 83zM1055 386h787v-260h-787v260zM737 0l-7 88q-13 188 -343 690q-21 33 -35 54v-832h-260v1460h249l12 -81q14 -98 251 -458q86 -131 127 -197v736h260v-1460h-254z" />
    <glyph glyph-name="trademark" unicode="&#x2122;" horiz-adv-x="1497" 
d="M812 785l-9 86q-6 57 -41 158q-19 -82 -22 -144l-5 -90h-203l5 100q10 177 105 426l31 82h156l30 -75q24 -52 46 -104q20 52 44 104l39 75h137l42 -81q97 -250 107 -427l6 -100h-203l-5 90q-4 62 -24 145q-35 -102 -40 -159l-9 -86h-187zM255 794v407h-153v202h508v-202
h-153v-407h-202z" />
    <glyph glyph-name="partialdiff" unicode="&#x2202;" 
d="M232 537q0 -41 5 -79q14 -122 61.5 -230t118.5 -165q64 -53 128 -53q6 0 13 1q70 5 127.5 70.5t80.5 179.5q16 73 16 149q0 42 -5 85q-14 122 -62.5 231.5t-119.5 165.5q-65 50 -128 50h-11q-68 -5 -126 -69.5t-82 -178.5q-16 -84 -16 -157zM937 477q0 -132 -56.5 -251
t-159 -185t-214.5 -66t-214.5 66t-159 185t-56.5 251q0 131 58 251t161 185t211 65q109 0 212 -65q29 -18 54 -41q-84 235 -233.5 377t-326.5 155v55q306 0 515 -285t209 -697z" />
    <glyph glyph-name="Delta" unicode="&#x2206;" horiz-adv-x="1081" 
d="M514 1195l-406 -1072h801zM547 1434l526 -1434h-1067z" />
    <glyph glyph-name="product" unicode="&#x220f;" horiz-adv-x="1515" 
d="M511 1384q-102 0 -102 -235v-1281q0 -235 102 -235h97v-51h-560v51h96q103 0 103 235v1281q0 235 -103 235h-96v50h1419v-50h-97q-102 0 -102 -235v-1281q0 -235 102 -235h97v-50h-560v50h96q103 0 103 235v1281q0 235 -103 235h-492z" />
    <glyph glyph-name="summation" unicode="&#x2211;" horiz-adv-x="1206" 
d="M1059 548l-788 -914h635q130 0 189 182h49l-103 -232h-921v50q62 0 106 53l663 781l-663 859q-44 57 -106 57v50h921l103 -232h-49q-59 182 -189 182h-485z" />
    <glyph glyph-name="minus" unicode="&#x2212;" 
d="M87 647v140h839l1 -1v-139h-840z" />
    <glyph glyph-name="radical" unicode="&#x221a;" 
d="M181 0l-164 359l74 35l85 -185l728 1470h150v-60h-72z" />
    <glyph glyph-name="infinity" unicode="&#x221e;" 
d="M439 755q-15 103 -74 133q-46 22 -84 22q-12 0 -23 -2q-49 -10 -92.5 -44.5t-65.5 -84.5q-20 -46 -20 -90v-8q2 -48 27.5 -89t71.5 -58q29 -11 61 -11q16 0 33 3q47 10 90.5 43.5t75.5 185.5zM466 687q12 -96 94 -153q69 -48 123 -48q11 0 21 2q62 12 117.5 52t84.5 101
q26 54 26 108v11q-2 60 -35.5 108.5t-91.5 68.5q-37 13 -76 13q-22 0 -44 -4q-67 -9 -127 -62t-92 -197zM450 827q9 35 21 69q34 88 95 137t128 49t128 -48t95 -135t34 -182t-34 -182t-95 -135t-128 -48t-128 49t-95 136q-12 35 -21 70q-5 -21 -12 -41q-27 -73 -74 -113
t-99 -40t-100 41t-73.5 113.5t-25.5 149.5q0 76 25.5 149t73.5 114t100 41t99 -40t74 -112q7 -21 12 -42z" />
    <glyph glyph-name="integral" unicode="&#x222b;" horiz-adv-x="665" 
d="M-12 -281q-60 0 -60 29v159h36q1 -43 34.5 -64.5t63.5 -21.5h1q82 0 115 162q32 162 40 316l70 734l8 62q27 238 135 429.5t234 191.5q60 0 60 -29v-159h-36q-1 43 -35 64.5t-63 21.5q-71 0 -116 -155.5t-49 -363.5l-73 -767q-20 -231 -130.5 -420t-234.5 -189z" />
    <glyph glyph-name="approxequal" unicode="&#x2248;" 
d="M923 1053v-156q-63 -72 -122 -97.5t-116 -25.5q-60 0 -177.5 48.5t-176.5 48.5q-51 0 -107.5 -28t-129.5 -112v156q64 73 123 99t114 26q64 0 181.5 -49.5t172.5 -49.5q52 0 108.5 28t129.5 112zM923 705v-156q-63 -72 -122 -97.5t-116 -25.5q-60 0 -177.5 48.5
t-176.5 48.5q-51 0 -107.5 -28t-129.5 -112v156q64 73 123 99t114 26q64 0 181.5 -49.5t172.5 -49.5q52 0 108.5 28t129.5 112z" />
    <glyph glyph-name="lessequal" unicode="&#x2264;" 
d="M927 1074l-625 -359l625 -355v-167l-840 481v83l840 484v-167zM87 1v140h839l1 -1v-139h-840z" />
    <glyph glyph-name="greaterequal" unicode="&#x2265;" 
d="M87 1241l840 -484v-83l-840 -481v167l625 355l-625 359v167zM87 2v140h839l1 -1v-139h-840z" />
    <glyph glyph-name="uniF001" unicode="&#xf001;" horiz-adv-x="1073" 
 />
    <glyph glyph-name="uniF001" unicode="&#xfb01;" horiz-adv-x="1073" 
 />
    <glyph glyph-name="uniF002" unicode="&#xf002;" horiz-adv-x="1081" 
 />
    <glyph glyph-name="uniF002" unicode="&#xfb02;" horiz-adv-x="1081" 
 />
  </font>
</defs>
</svg>
